<?xml version="1.0" encoding="utf-8"?>
<!-- Generator: Adobe Illustrator 24.0.0, SVG Export Plug-In . SVG Version: 6.00 Build 0)  -->
<svg version="1.1" id="Слой_1" xmlns="http://www.w3.org/2000/svg" xmlns:xlink="http://www.w3.org/1999/xlink" x="0px" y="0px"
	 width="250px" height="100px" viewBox="0 0 250 100" enable-background="new 0 0 250 100" xml:space="preserve">
<g>
	<path d="M92,34l8,15.9c0.8,1.5,1.4,2.4,1.9,2.9c0.5,0.5,1.3,0.8,2.3,0.9c2,0.3,3,1.2,3,2.9c0,1.9-1.2,3.3-3.7,4.1
		C101.1,61.6,97,62,91.4,62c-6.4,0-11.1-0.3-14.2-0.7c-1.4-0.2-2.5-0.7-3.4-1.4c-0.8-0.7-1.2-1.6-1.2-2.6c0-0.8,0.2-1.4,0.7-1.8
		c0.4-0.4,1.2-0.8,2.4-1.2c1.3-0.4,2-1.1,2-2.1c0-1.8-1.1-2.8-3.4-3.1c-2.5-0.3-5.9-0.5-10.4-0.5c-3.8,0-6,0.2-6.7,0.6
		c-0.5,0.3-0.8,0.7-1.2,1.4s-0.5,1.3-0.5,2c0,0.6,0.1,1,0.4,1.1c0.2,0.2,1,0.5,2.3,0.8c1.7,0.5,2.6,1.4,2.6,2.8
		c0,3.1-4,4.7-12.1,4.7c-4.6,0-7.9-0.3-10.1-0.9c-2-0.6-3-1.8-3-3.6c0-0.8,0.2-1.4,0.7-1.9c0.4-0.4,1.2-0.9,2.3-1.2
		c1.8-0.6,3.2-1.5,4.2-2.5c0.9-1.1,2.3-3.4,4-7l6-12.2c2.2-4.5,3.7-7.8,4.4-10c0.7-2.2,1.1-4.4,1.2-6.5c0-2.3,0.2-3.8,0.4-4.7
		c0.3-0.9,0.9-1.7,1.8-2.6c1.9-1.8,4.4-2.8,7.4-2.8c2.8,0,5.6,1,8.2,3.1C79.9,12.1,85.1,20.3,92,34z M62.6,39h8.3
		c1.5,0,2.3-0.3,2.3-0.9c0-0.9-1.1-3-3.2-6.4c-1-1.5-1.7-2.6-2.2-3.1c-0.5-0.5-1-0.8-1.6-0.8c-1,0-1.9,0.9-2.5,2.6
		c-0.1,0.2-0.5,1.2-1.2,2.8c-1.2,2.7-1.8,4.3-1.8,4.8C60.6,38.6,61.3,39,62.6,39z"/>
	<path d="M150.8,44.9l-5.1,10.6c-0.9,1.8-1.6,3-2.1,3.6c-0.5,0.6-1.1,0.9-1.8,0.9c-0.6,0-1.2-0.2-1.6-0.7c-0.3-0.3-1-1.5-2.1-3.5
		c-1.1-2-2-3.8-2.8-5.3l-5.6-11.7c-0.8-1.6-1.6-2.4-2.4-2.4c-0.9,0-1.4,0.7-1.5,2.1c-0.2,3.1-0.3,6-0.3,8.6c0,2.7,0.1,4.6,0.4,5.6
		c0.2,0.6,0.5,1,0.8,1.3s1.2,0.7,2.6,1.4c0.9,0.4,1.4,1.2,1.4,2.3c0,2.9-4,4.4-12.1,4.4c-6.8,0-10.2-1.4-10.2-4.3
		c0-0.7,0.2-1.3,0.5-1.6c0.4-0.3,1.3-0.8,2.7-1.5c0.9-0.4,1.6-0.9,1.9-1.6c0.3-0.7,0.6-2,0.8-4c0.3-2.1,0.5-5.5,0.7-10.3
		c0.2-4.8,0.3-8.9,0.3-12.3c0-4.3-0.4-7.2-1.1-8.7c-0.3-0.5-0.5-0.9-0.9-1.2c-0.3-0.3-0.9-0.6-1.8-1c-2-0.9-3-2-3-3.5
		c0-0.9,0.4-1.8,1.1-2.5c0.7-0.8,1.7-1.3,3-1.6c1.2-0.3,2.9-0.6,5-0.9c2.1-0.2,3.8-0.4,5.3-0.4c3.6,0,6.2,0.3,7.7,0.8
		c0.7,0.3,1.3,0.6,1.7,1.1s1,1.4,1.8,2.8l8.8,15.1c1,1.7,1.6,2.7,2,3c0.4,0.4,0.9,0.6,1.5,0.6c0.6,0,1.1-0.2,1.5-0.6
		c0.4-0.4,1-1.1,1.5-2.2l6-10.8c0.7-1.4,1.2-2.3,1.4-2.7c1.4-2.6,2.7-4.4,4.1-5.2c1.7-1.1,4.8-1.7,9.4-1.7c8,0,12,1.7,12,5.1
		c0,0.8-0.2,1.4-0.5,1.8c-0.3,0.5-0.9,1-1.9,1.7c-1.3,0.9-2.1,2.2-2.5,4c-0.6,3.6-1,8-1,13.2c0,6.7,0.3,12.6,1,17.6
		c0.2,1.2,0.4,2.1,0.8,2.5c0.4,0.4,1.3,1.1,2.7,2c1,0.6,1.5,1.5,1.5,2.5c0,1.8-1.3,3.1-3.9,3.9c-1.4,0.4-2.8,0.7-4.3,0.8
		c-1.5,0.1-3.8,0.2-6.9,0.2c-4.8,0-8.3-0.3-10.7-0.9c-2.6-0.7-3.9-1.9-3.9-3.6c0-0.6,0.2-1.1,0.5-1.6c0.3-0.4,1.2-1.1,2.6-2.2
		c0.7-0.6,1.2-1.6,1.5-3.2c0.3-1.6,0.4-4.3,0.4-8c0-2.1-0.1-3.5-0.3-4.1c-0.2-0.7-0.7-1-1.3-1c-0.8,0-1.6,0.5-2.3,1.5
		C153.4,39.9,152.3,41.9,150.8,44.9z"/>
	<path d="M203.6,7.5h22.3c2.4-0.1,4.6-0.4,6.6-0.9c0.8-0.2,1.6-0.3,2.2-0.3c2.3,0,4.5,1.6,6.7,4.7c2.2,3.1,3.2,6.4,3.2,9.7
		c0,2.3-0.7,4-2.2,5c-1.1,0.8-2.5,1.2-4.1,1.2c-1.5,0-2.8-0.4-3.9-1.2c-1.1-0.8-2.2-2.1-3.3-3.8c-0.9-1.6-1.7-2.7-2.2-3.2
		c-0.5-0.5-1.2-0.7-1.9-0.7c-1,0-1.8,0.4-2.2,1.2c-0.5,0.8-0.7,2.2-0.7,4v22c0,2.3,0.3,3.9,0.8,4.9c0.5,1,1.5,1.8,2.9,2.4
		c1.5,0.6,2.6,1.2,3.1,1.7s0.8,1.3,0.8,2.2c0,1.9-1.4,3.3-4.1,4.2c-2.8,0.9-7,1.4-12.7,1.4c-7,0-12.2-0.5-15.6-1.6
		c-2.8-0.9-4.3-2.3-4.3-4.3c0-1.1,0.5-1.9,1.5-2.5c0.3-0.1,1.3-0.4,3-0.9c1.1-0.3,1.8-0.8,2.2-1.7c0.4-0.8,0.7-2.4,1-4.7
		c0.2-2,0.4-5.4,0.6-9.9c0.2-4.6,0.3-8.5,0.3-11.9c0-2.4-0.2-4-0.6-5c-0.4-1-1-1.5-1.9-1.5c-1.1,0-2.2,0.7-3.2,2.2
		c-1.9,2.7-3.4,4.4-4.7,5.3c-1.4,1-2.8,1.5-4.2,1.5c-1.5,0-2.8-0.5-3.8-1.6c-1-1.1-1.5-2.4-1.5-4.1c0-1.6,0.4-3.4,1.2-5.4
		c0.8-2,1.8-3.8,3.2-5.4c2.1-2.7,4.3-4,6.3-4c0.6,0,1.2,0.1,1.9,0.2c1.5,0.3,2.8,0.5,3.7,0.6C201.2,7.4,202.3,7.5,203.6,7.5z"/>
</g>
<path d="M8.9,16.7h12.2l3.1-3.1c0.3,3.8,1.6,7.4,3.8,10.5l0.3,0.4l2.5-1.8l-0.3-0.4c-2.1-3-3.3-6.5-3.3-10.2h4.6V6H19.6
	C13.7,6,8.9,10.8,8.9,16.7z"/>
<polygon points="7.4,50.3 28.8,47.2 28.8,44.2 7.4,47.2 "/>
<polygon points="7.4,61 28.8,61 28.8,50.3 7.4,53.3 "/>
<path d="M25,34.3c-2.4-2.4-3.8-5.8-3.8-9.2v-5.3h-6.1V25c0,3.5-1.4,6.8-3.8,9.2c-2.4,2.4-3.8,5.8-3.8,9.2v0.7l21.2-3
	C28.1,38.5,26.9,36.1,25,34.3z"/>
<g>
	<path d="M8.3,69.6c0.7-0.1,1.7-0.2,2.8-0.2c1.5,0,2.5,0.2,3.3,0.8c0.6,0.4,1,1.1,1,2c0,1.1-0.8,2-2,2.4v0c1.1,0.3,2.5,1.1,2.5,2.8
		c0,1-0.4,1.7-1,2.2c-0.8,0.7-2.2,1-4.1,1c-1.1,0-1.9-0.1-2.4-0.1V69.6z M9.9,74.1h1.4c1.6,0,2.6-0.8,2.6-1.9c0-1.3-1.1-1.8-2.6-1.8
		c-0.7,0-1.1,0-1.4,0.1V74.1z M9.9,79.4c0.3,0,0.7,0.1,1.3,0.1c1.6,0,3.1-0.5,3.1-2.2c0-1.5-1.4-2.1-3.1-2.1H9.9V79.4z"/>
	<path d="M24,80.2c-0.4,0.2-1.3,0.5-2.5,0.5c-2.6,0-4.3-1.6-4.3-4.1c0-2.5,1.8-4.2,4.6-4.2c0.9,0,1.7,0.2,2.2,0.4l-0.4,1.1
		c-0.4-0.2-1-0.4-1.8-0.4c-2,0-3,1.3-3,3c0,1.8,1.3,3,3,3c0.9,0,1.5-0.2,1.9-0.4L24,80.2z"/>
	<path d="M26.6,76.8c0,2,1.4,2.8,2.9,2.8c1.1,0,1.8-0.2,2.4-0.4l0.3,1c-0.5,0.2-1.5,0.5-2.8,0.5c-2.6,0-4.2-1.6-4.2-4
		c0-2.4,1.5-4.3,4-4.3c2.8,0,3.5,2.3,3.5,3.8c0,0.3,0,0.5-0.1,0.7H26.6z M31.2,75.8c0-0.9-0.4-2.4-2.2-2.4c-1.6,0-2.3,1.3-2.4,2.4
		H31.2z"/>
	<path d="M45,72.6v6.9l0.9,0l-0.1,3.6h-1.2l-0.1-2.5h-5.9l-0.1,2.5h-1.2l-0.1-3.6l0.7,0c0.4-0.5,0.7-1.1,0.8-1.6
		c0.3-1,0.5-2.1,0.5-3.2v-2.1H45z M40.7,75c0,1.1-0.2,2.1-0.4,3c-0.2,0.5-0.4,1-0.7,1.5h3.9v-5.8h-2.8V75z"/>
	<path d="M54.3,72.6v8h-1.5v-6.8h-2.9v2.1c0,2.2-0.2,3.7-1.3,4.4c-0.4,0.3-0.9,0.5-1.7,0.5l-0.2-1.1c0.3,0,0.6-0.2,0.8-0.3
		c0.8-0.5,0.9-1.7,0.9-3.4v-3.2H54.3z"/>
	<path d="M63.2,80.5h-1.5v-3.3h-1.2c-0.7,0-1.1,0.2-1.4,0.4c-0.6,0.5-0.9,1.5-1.2,2.2c-0.1,0.2-0.2,0.5-0.4,0.7h-1.7
		c0.2-0.3,0.4-0.6,0.5-0.9c0.4-0.8,0.6-1.8,1.3-2.4c0.3-0.2,0.6-0.4,1-0.5v0c-1.1-0.1-2.3-0.8-2.3-2c0-0.8,0.5-1.4,1.1-1.7
		c0.7-0.4,1.8-0.5,2.9-0.5c1,0,2,0.1,2.8,0.2V80.5z M61.7,73.5c-0.4,0-0.7-0.1-1.3-0.1c-1.1,0-2.3,0.3-2.3,1.4c0,1,1.4,1.4,2.3,1.4
		c0.6,0,1,0,1.3,0V73.5z"/>
	<path d="M74.2,80.5l-0.1-1h-0.1c-0.5,0.6-1.4,1.2-2.6,1.2c-1.7,0-2.6-1.1-2.6-2.3c0-1.9,1.8-3,5.2-3v-0.2c0-0.7-0.2-1.8-1.9-1.8
		c-0.8,0-1.6,0.2-2.2,0.6l-0.4-1c0.7-0.4,1.7-0.7,2.8-0.7c2.6,0,3.3,1.7,3.3,3.3v3c0,0.7,0,1.4,0.1,1.9H74.2z M74,76.5
		c-1.7,0-3.6,0.2-3.6,1.8c0,0.9,0.7,1.4,1.5,1.4c1.1,0,1.8-0.7,2.1-1.3C74,78.2,74,78,74,77.8V76.5z"/>
	<path d="M78,72.7c0.6-0.1,1.7-0.2,2.7-0.2c1.4,0,3.8,0.2,3.8,2c0,1-0.8,1.6-1.8,1.8v0c1.3,0.2,2.2,0.8,2.2,2c0,2.1-2.8,2.4-4.5,2.4
		c-1,0-1.9-0.1-2.4-0.1V72.7z M79.4,79.6c0.4,0,0.8,0.1,1.3,0.1c1,0,2.6-0.2,2.6-1.4c0-1.2-1.2-1.4-2.7-1.4h-1.1V79.6z M79.5,75.9
		h1.2c1.2,0,2.3-0.3,2.3-1.3c0-0.8-0.7-1.2-2.3-1.2c-0.5,0-0.8,0-1.2,0.1V75.9z"/>
	<path d="M92.5,72.6v1.2h-2.7v6.8h-1.5v-6.8h-2.7v-1.2H92.5z"/>
	<path d="M101.4,76.5c0,2.9-2.2,4.2-4.3,4.2c-2.3,0-4.1-1.6-4.1-4.1c0-2.7,1.9-4.2,4.2-4.2C99.7,72.4,101.4,74,101.4,76.5z
		 M94.6,76.6c0,1.7,1.1,3.1,2.6,3.1c1.5,0,2.6-1.3,2.6-3.1c0-1.3-0.7-3.1-2.6-3.1S94.6,75,94.6,76.6z"/>
	<path d="M103.4,72.6h1.9l1.6,4c0.2,0.6,0.6,1.6,0.8,2.2h0c0.2-0.6,0.7-1.9,1-2.7l1.4-3.5h1.9l0.6,8h-1.5l-0.2-3.8
		c-0.1-0.9-0.1-1.9-0.2-2.8h-0.1c-0.2,0.7-0.5,1.4-0.9,2.6l-1.6,4H107l-1.5-3.9c-0.3-0.8-0.6-1.9-0.8-2.7h-0.1c0,0.9-0.1,2-0.1,2.9
		l-0.2,3.8h-1.4L103.4,72.6z"/>
	<path d="M122.4,76.5c0,2.9-2.2,4.2-4.3,4.2c-2.3,0-4.1-1.6-4.1-4.1c0-2.7,1.9-4.2,4.2-4.2C120.7,72.4,122.4,74,122.4,76.5z
		 M115.6,76.6c0,1.7,1.1,3.1,2.6,3.1c1.5,0,2.6-1.3,2.6-3.1c0-1.3-0.7-3.1-2.6-3.1S115.6,75,115.6,76.6z"/>
	<path d="M125.2,76.8c0,2,1.4,2.8,2.9,2.8c1.1,0,1.8-0.2,2.4-0.4l0.3,1c-0.5,0.2-1.5,0.5-2.8,0.5c-2.6,0-4.2-1.6-4.2-4
		c0-2.4,1.5-4.3,4-4.3c2.8,0,3.5,2.3,3.5,3.8c0,0.3,0,0.5-0.1,0.7H125.2z M129.8,75.8c0-0.9-0.4-2.4-2.2-2.4c-1.6,0-2.3,1.3-2.4,2.4
		H129.8z"/>
	<path d="M134.8,72.6V76h0.4l3.2-3.5h1.9l-3.7,3.6c1.4,0.1,2.2,1,2.9,2.4c0.2,0.5,0.5,1.3,0.9,1.9h-1.6c-0.2-0.3-0.5-1-0.8-1.6
		c-0.6-1.3-1.4-1.9-2.8-1.9h-0.3v3.5h-1.5v-8H134.8z"/>
	<path d="M146.9,72.6v3.4c0,1.3,0,2.1-0.1,3.2l0.1,0c0.5-1,0.8-1.5,1.4-2.5l2.7-4.1h1.8v8h-1.5v-3.4c0-1.3,0-2,0.1-3.3h-0.1
		c-0.5,1-0.9,1.7-1.4,2.5c-0.8,1.2-1.8,2.8-2.7,4.2h-1.8v-8H146.9z"/>
	<path d="M165.6,72.6v6.9l0.9,0l-0.1,3.6h-1.2l-0.1-2.5h-5.9l-0.1,2.5h-1.2l-0.1-3.6l0.7,0c0.4-0.5,0.7-1.1,0.8-1.6
		c0.3-1,0.5-2.1,0.5-3.2v-2.1H165.6z M161.3,75c0,1.1-0.2,2.1-0.4,3c-0.2,0.5-0.4,1-0.7,1.5h3.9v-5.8h-2.8V75z"/>
	<path d="M169.2,76.8c0,2,1.4,2.8,2.9,2.8c1.1,0,1.8-0.2,2.4-0.4l0.3,1c-0.5,0.2-1.5,0.5-2.8,0.5c-2.6,0-4.2-1.6-4.2-4
		c0-2.4,1.5-4.3,4-4.3c2.8,0,3.5,2.3,3.5,3.8c0,0.3,0,0.5-0.1,0.7H169.2z M173.7,75.8c0-0.9-0.4-2.4-2.2-2.4c-1.6,0-2.3,1.3-2.4,2.4
		H173.7z"/>
	<path d="M182.9,72.6v1.2h-2.7v6.8h-1.5v-6.8H176v-1.2H182.9z"/>
	<path d="M184.9,76.8c0,2,1.4,2.8,2.9,2.8c1.1,0,1.8-0.2,2.4-0.4l0.3,1c-0.5,0.2-1.5,0.5-2.8,0.5c-2.6,0-4.2-1.6-4.2-4
		c0-2.4,1.5-4.3,4-4.3c2.8,0,3.5,2.3,3.5,3.8c0,0.3,0,0.5-0.1,0.7H184.9z M189.5,75.8c0-0.9-0.4-2.4-2.2-2.4c-1.6,0-2.3,1.3-2.4,2.4
		H189.5z"/>
	<path d="M194.3,72.6v3.4c0,1.3,0,2.1-0.1,3.2l0.1,0c0.5-1,0.8-1.5,1.4-2.5l2.7-4.1h1.8v8h-1.5v-3.4c0-1.3,0-2,0.1-3.3h-0.1
		c-0.5,1-0.9,1.7-1.4,2.5c-0.8,1.2-1.8,2.8-2.7,4.2h-1.8v-8H194.3z M195.3,69.3c0.1,0.7,0.4,1.3,1.1,1.3c0.8,0,1.1-0.5,1.2-1.3h1.1
		c-0.1,1.3-1,2-2.4,2c-1.6,0-2.2-0.9-2.2-2H195.3z"/>
	<path d="M209.2,72.6v8h-1.5v-6.8h-2.9v2.1c0,2.2-0.2,3.7-1.3,4.4c-0.4,0.3-0.9,0.5-1.7,0.5l-0.2-1.1c0.3,0,0.6-0.2,0.8-0.3
		c0.8-0.5,0.9-1.7,0.9-3.4v-3.2H209.2z"/>
	<path d="M213.2,72.6v3.4c0,1.3,0,2.1-0.1,3.2l0.1,0c0.5-1,0.8-1.5,1.4-2.5l2.7-4.1h1.8v8h-1.5v-3.4c0-1.3,0-2,0.1-3.3h-0.1
		c-0.5,1-0.9,1.7-1.4,2.5c-0.8,1.2-1.8,2.8-2.7,4.2h-1.8v-8H213.2z"/>
	<path d="M223,72.6v3.2h4.1v-3.2h1.5v8h-1.5v-3.6H223v3.6h-1.5v-8H223z"/>
	<path d="M236.4,72.6v1.2h-3.7v6.8h-1.5v-8H236.4z"/>
	<path d="M242.5,80.5l-0.1-1h-0.1c-0.5,0.6-1.4,1.2-2.6,1.2c-1.7,0-2.6-1.1-2.6-2.3c0-1.9,1.8-3,5.2-3v-0.2c0-0.7-0.2-1.8-1.9-1.8
		c-0.8,0-1.6,0.2-2.2,0.6l-0.4-1c0.7-0.4,1.7-0.7,2.8-0.7c2.6,0,3.3,1.7,3.3,3.3v3c0,0.7,0,1.4,0.1,1.9H242.5z M242.3,76.5
		c-1.7,0-3.6,0.2-3.6,1.8c0,0.9,0.7,1.4,1.5,1.4c1.1,0,1.8-0.7,2.1-1.3c0.1-0.1,0.1-0.3,0.1-0.5V76.5z"/>
</g>
</svg>
