<?xml version="1.0" encoding="utf-8"?>
<!-- Generator: Adobe Illustrator 24.0.0, SVG Export Plug-In . SVG Version: 6.00 Build 0)  -->
<svg version="1.1" id="Слой_1" xmlns="http://www.w3.org/2000/svg" xmlns:xlink="http://www.w3.org/1999/xlink" x="0px" y="0px"
	 width="250px" height="100px" viewBox="0 0 250 100" style="enable-background:new 0 0 250 100;" xml:space="preserve">
<g>
	<path d="M93.4,39.8l8,15.9c0.8,1.5,1.4,2.4,1.9,2.9s1.3,0.8,2.3,0.9c2,0.3,3,1.2,3,2.9c0,1.9-1.2,3.3-3.7,4.1
		c-2.4,0.9-6.5,1.3-12.1,1.3c-6.4,0-11.1-0.3-14.2-0.7c-1.4-0.2-2.5-0.7-3.4-1.4C74.4,65,74,64.1,74,63.1c0-0.8,0.2-1.4,0.7-1.8
		c0.4-0.4,1.2-0.8,2.4-1.2c1.3-0.4,2-1.1,2-2.1c0-1.8-1.1-2.8-3.4-3.1c-2.5-0.3-5.9-0.5-10.4-0.5c-3.8,0-6,0.2-6.7,0.6
		c-0.5,0.3-0.8,0.7-1.2,1.4s-0.5,1.3-0.5,2c0,0.6,0.1,1,0.4,1.1c0.2,0.2,1,0.5,2.3,0.8c1.7,0.5,2.6,1.4,2.6,2.8
		c0,3.1-4,4.7-12.1,4.7c-4.6,0-7.9-0.3-10.1-0.9c-2-0.6-3-1.8-3-3.6c0-0.8,0.2-1.4,0.7-1.9c0.4-0.4,1.2-0.9,2.3-1.2
		c1.8-0.6,3.2-1.5,4.2-2.5c0.9-1.1,2.3-3.4,4-7l6-12.2c2.2-4.5,3.7-7.8,4.4-10s1.1-4.4,1.2-6.5c0-2.3,0.2-3.8,0.4-4.7
		c0.3-0.9,0.9-1.7,1.8-2.6c1.9-1.8,4.4-2.8,7.4-2.8c2.8,0,5.6,1,8.2,3.1C81.3,17.9,86.5,26.1,93.4,39.8z M64,44.8h8.3
		c1.5,0,2.3-0.3,2.3-0.9c0-0.9-1.1-3-3.2-6.4c-1-1.5-1.7-2.6-2.2-3.1s-1-0.8-1.6-0.8c-1,0-1.9,0.9-2.5,2.6c-0.1,0.2-0.5,1.2-1.2,2.8
		c-1.2,2.7-1.8,4.3-1.8,4.8C62,44.4,62.7,44.8,64,44.8z"/>
	<path d="M152.2,50.7l-5.1,10.6c-0.9,1.8-1.6,3-2.1,3.6s-1.1,0.9-1.8,0.9c-0.6,0-1.2-0.2-1.6-0.7c-0.3-0.3-1-1.5-2.1-3.5
		s-2-3.8-2.8-5.3l-5.6-11.7c-0.8-1.6-1.6-2.4-2.4-2.4c-0.9,0-1.4,0.7-1.5,2.1c-0.2,3.1-0.3,6-0.3,8.6c0,2.7,0.1,4.6,0.4,5.6
		c0.2,0.6,0.5,1,0.8,1.3s1.2,0.7,2.6,1.4c0.9,0.4,1.4,1.2,1.4,2.3c0,2.9-4,4.4-12.1,4.4c-6.8,0-10.2-1.4-10.2-4.3
		c0-0.7,0.2-1.3,0.5-1.6c0.4-0.3,1.3-0.8,2.7-1.5c0.9-0.4,1.6-0.9,1.9-1.6c0.3-0.7,0.6-2,0.8-4c0.3-2.1,0.5-5.5,0.7-10.3
		s0.3-8.9,0.3-12.3c0-4.3-0.4-7.2-1.1-8.7c-0.3-0.5-0.5-0.9-0.9-1.2c-0.3-0.3-0.9-0.6-1.8-1c-2-0.9-3-2-3-3.5c0-0.9,0.4-1.8,1.1-2.5
		c0.7-0.8,1.7-1.3,3-1.6c1.2-0.3,2.9-0.6,5-0.9c2.1-0.2,3.8-0.4,5.3-0.4c3.6,0,6.2,0.3,7.7,0.8c0.7,0.3,1.3,0.6,1.7,1.1
		s1,1.4,1.8,2.8l8.8,15.1c1,1.7,1.6,2.7,2,3c0.4,0.4,0.9,0.6,1.5,0.6s1.1-0.2,1.5-0.6c0.4-0.4,1-1.1,1.5-2.2l6-10.8
		c0.7-1.4,1.2-2.3,1.4-2.7c1.4-2.6,2.7-4.4,4.1-5.2c1.7-1.1,4.8-1.7,9.4-1.7c8,0,12,1.7,12,5.1c0,0.8-0.2,1.4-0.5,1.8
		c-0.3,0.5-0.9,1-1.9,1.7c-1.3,0.9-2.1,2.2-2.5,4c-0.6,3.6-1,8-1,13.2c0,6.7,0.3,12.6,1,17.6c0.2,1.2,0.4,2.1,0.8,2.5
		c0.4,0.4,1.3,1.1,2.7,2c1,0.6,1.5,1.5,1.5,2.5c0,1.8-1.3,3.1-3.9,3.9c-1.4,0.4-2.8,0.7-4.3,0.8s-3.8,0.2-6.9,0.2
		c-4.8,0-8.3-0.3-10.7-0.9c-2.6-0.7-3.9-1.9-3.9-3.6c0-0.6,0.2-1.1,0.5-1.6c0.3-0.4,1.2-1.1,2.6-2.2c0.7-0.6,1.2-1.6,1.5-3.2
		c0.3-1.6,0.4-4.3,0.4-8c0-2.1-0.1-3.5-0.3-4.1c-0.2-0.7-0.7-1-1.3-1c-0.8,0-1.6,0.5-2.3,1.5C154.8,45.7,153.7,47.7,152.2,50.7z"/>
	<path d="M205,13.3h22.3c2.4-0.1,4.6-0.4,6.6-0.9c0.8-0.2,1.6-0.3,2.2-0.3c2.3,0,4.5,1.6,6.7,4.7s3.2,6.4,3.2,9.7c0,2.3-0.7,4-2.2,5
		c-1.1,0.8-2.5,1.2-4.1,1.2c-1.5,0-2.8-0.4-3.9-1.2c-1.1-0.8-2.2-2.1-3.3-3.8c-0.9-1.6-1.7-2.7-2.2-3.2s-1.2-0.7-1.9-0.7
		c-1,0-1.8,0.4-2.2,1.2c-0.5,0.8-0.7,2.2-0.7,4v22c0,2.3,0.3,3.9,0.8,4.9s1.5,1.8,2.9,2.4c1.5,0.6,2.6,1.2,3.1,1.7s0.8,1.3,0.8,2.2
		c0,1.9-1.4,3.3-4.1,4.2c-2.8,0.9-7,1.4-12.7,1.4c-7,0-12.2-0.5-15.6-1.6c-2.8-0.9-4.3-2.3-4.3-4.3c0-1.1,0.5-1.9,1.5-2.5
		c0.3-0.1,1.3-0.4,3-0.9c1.1-0.3,1.8-0.8,2.2-1.7c0.4-0.8,0.7-2.4,1-4.7c0.2-2,0.4-5.4,0.6-9.9c0.2-4.6,0.3-8.5,0.3-11.9
		c0-2.4-0.2-4-0.6-5c-0.4-1-1-1.5-1.9-1.5c-1.1,0-2.2,0.7-3.2,2.2c-1.9,2.7-3.4,4.4-4.7,5.3c-1.4,1-2.8,1.5-4.2,1.5
		c-1.5,0-2.8-0.5-3.8-1.6s-1.5-2.4-1.5-4.1c0-1.6,0.4-3.4,1.2-5.4s1.8-3.8,3.2-5.4c2.1-2.7,4.3-4,6.3-4c0.6,0,1.2,0.1,1.9,0.2
		c1.5,0.3,2.8,0.5,3.7,0.6C202.6,13.2,203.7,13.3,205,13.3z"/>
</g>
<path d="M6.1,26.3h16.5l4.2-4.2c0.4,5.1,2.2,10,5.1,14.2l0.4,0.5l3.4-2.4l-0.4-0.5c-2.8-4.1-4.5-8.8-4.5-13.8H37v-8.2H20.5
	C12.5,11.8,6.1,18.3,6.1,26.3z"/>
<polygon points="4,71.7 32.9,67.5 32.9,63.4 4,67.5 "/>
<polygon points="4,86.1 32.9,86.1 32.9,71.7 4,75.7 "/>
<path d="M27.8,50.1c-3.2-3.2-5.1-7.8-5.1-12.4v-7.2h-8.2v7c0,4.7-1.9,9.2-5.1,12.4s-5.1,7.8-5.1,12.4v0.9l28.6-4.1
	C32,55.7,30.4,52.5,27.8,50.1z"/>
<g>
	<path d="M37,76.2c0.6-0.1,1.5-0.2,2.5-0.2c1.3,0,2.2,0.2,2.9,0.7c0.5,0.4,0.9,1,0.9,1.8c0,1-0.7,1.8-1.8,2.1l0,0
		c1,0.3,2.2,1,2.2,2.5c0,0.9-0.4,1.5-0.9,1.9c-0.7,0.6-1.9,0.9-3.6,0.9c-1,0-1.7-0.1-2.1-0.1L37,76.2L37,76.2z M38.4,80.2h1.2
		c1.4,0,2.3-0.7,2.3-1.7c0-1.1-1-1.6-2.3-1.6c-0.6,0-1,0-1.2,0.1V80.2z M38.4,84.9c0.3,0,0.6,0.1,1.1,0.1c1.4,0,2.7-0.4,2.7-1.9
		c0-1.3-1.2-1.9-2.7-1.9h-1.1V84.9z"/>
	<path d="M50.9,85.6c-0.4,0.2-1.1,0.4-2.2,0.4c-2.3,0-3.8-1.4-3.8-3.6s1.6-3.7,4.1-3.7c0.8,0,1.5,0.2,1.9,0.4l-0.4,1
		c-0.4-0.2-0.9-0.4-1.6-0.4c-1.8,0-2.7,1.1-2.7,2.7c0,1.6,1.1,2.7,2.7,2.7c0.8,0,1.3-0.2,1.7-0.4L50.9,85.6z"/>
	<path d="M53.2,82.6c0,1.8,1.2,2.5,2.6,2.5c1,0,1.6-0.2,2.1-0.4l0.3,0.9c-0.4,0.2-1.3,0.4-2.5,0.4c-2.3,0-3.7-1.4-3.7-3.5
		c0-2.1,1.3-3.8,3.5-3.8c2.5,0,3.1,2,3.1,3.4c0,0.3,0,0.4-0.1,0.6L53.2,82.6L53.2,82.6z M57.2,81.7c0-0.8-0.4-2.1-1.9-2.1
		c-1.4,0-2,1.1-2.1,2.1H57.2z"/>
	<path d="M69.4,78.9V85h0.8l-0.1,3.2h-1.1L69,85.9h-5.2l-0.1,2.2h-1.1L62.5,85h0.6c0.4-0.4,0.6-1,0.7-1.4c0.3-0.9,0.4-1.9,0.4-2.8
		v-1.9C64.3,78.9,69.4,78.9,69.4,78.9z M65.6,81c0,1-0.2,1.9-0.4,2.7c-0.2,0.4-0.4,0.9-0.6,1.3h3.4v-5.1h-2.5V81z"/>
	<path d="M77.6,78.9v7.1h-1.3v-6h-2.6v1.9c0,1.9-0.2,3.3-1.1,3.9c-0.4,0.3-0.8,0.4-1.5,0.4l-0.2-1c0.3,0,0.5-0.2,0.7-0.3
		c0.7-0.4,0.8-1.5,0.8-3V79h5.2V78.9z"/>
	<path d="M85.5,85.9h-1.3v-2.9h-1.1c-0.6,0-1,0.2-1.2,0.4c-0.5,0.4-0.8,1.3-1.1,1.9c-0.1,0.2-0.2,0.4-0.4,0.6H79
		c0.2-0.3,0.4-0.5,0.4-0.8c0.4-0.7,0.5-1.6,1.1-2.1c0.3-0.2,0.5-0.4,0.9-0.4l0,0c-1-0.1-2-0.7-2-1.8c0-0.7,0.4-1.2,1-1.5
		c0.6-0.4,1.6-0.4,2.6-0.4c0.9,0,1.8,0.1,2.5,0.2L85.5,85.9L85.5,85.9z M84.2,79.7c-0.4,0-0.6-0.1-1.1-0.1c-1,0-2,0.3-2,1.2
		c0,0.9,1.2,1.2,2,1.2c0.5,0,0.9,0,1.1,0V79.7z"/>
	<path d="M95.2,85.9L95.2,85h-0.1c-0.4,0.5-1.2,1.1-2.3,1.1c-1.5,0-2.3-1-2.3-2c0-1.7,1.6-2.7,4.6-2.7v-0.2c0-0.6-0.2-1.6-1.7-1.6
		c-0.7,0-1.4,0.2-1.9,0.5l-0.4-0.9c0.6-0.4,1.5-0.6,2.5-0.6c2.3,0,2.9,1.5,2.9,2.9v2.7c0,0.6,0,1.2,0.1,1.7H95.2z M95.1,82.3
		c-1.5,0-3.2,0.2-3.2,1.6c0,0.8,0.6,1.2,1.3,1.2c1,0,1.6-0.6,1.9-1.1c0-0.2,0-0.4,0-0.5V82.3z"/>
	<path d="M98.6,79c0.5-0.1,1.5-0.2,2.4-0.2c1.2,0,3.4,0.2,3.4,1.8c0,0.9-0.7,1.4-1.6,1.6l0,0c1.1,0.2,1.9,0.7,1.9,1.8
		c0,1.9-2.5,2.1-4,2.1c-0.9,0-1.7-0.1-2.1-0.1C98.6,85.9,98.6,79,98.6,79z M99.8,85.1c0.4,0,0.7,0.1,1.1,0.1c0.9,0,2.3-0.2,2.3-1.2
		s-1.1-1.2-2.4-1.2h-1L99.8,85.1L99.8,85.1z M99.9,81.8h1.1c1.1,0,2-0.3,2-1.1c0-0.7-0.6-1.1-2-1.1c-0.4,0-0.7,0-1.1,0.1V81.8z"/>
	<path d="M111.4,78.9v1.1H109v6h-1.3v-6h-2.4v-1.1H111.4z"/>
	<path d="M119.3,82.3c0,2.6-1.9,3.7-3.8,3.7c-2,0-3.6-1.4-3.6-3.6c0-2.4,1.7-3.7,3.7-3.7C117.8,78.7,119.3,80.1,119.3,82.3z
		 M113.3,82.4c0,1.5,1,2.7,2.3,2.7s2.3-1.1,2.3-2.7c0-1.1-0.6-2.7-2.3-2.7S113.3,81,113.3,82.4z"/>
	<path d="M121.1,78.9h1.7l1.4,3.5c0.2,0.5,0.5,1.4,0.7,1.9l0,0c0.2-0.5,0.6-1.7,0.9-2.4l1.2-3.1h1.7l0.5,7.1h-1.3l-0.2-3.4
		c-0.1-0.8-0.1-1.7-0.2-2.5h-0.1c-0.2,0.6-0.4,1.2-0.8,2.3l-1.4,3.5h-1l-1.3-3.4c-0.3-0.7-0.5-1.7-0.7-2.4h-0.1
		c0,0.8-0.1,1.8-0.1,2.6l-0.2,3.4h-1.2L121.1,78.9z"/>
	<path d="M137.9,82.3c0,2.6-1.9,3.7-3.8,3.7c-2,0-3.6-1.4-3.6-3.6c0-2.4,1.7-3.7,3.7-3.7C136.4,78.7,137.9,80.1,137.9,82.3z
		 M131.8,82.4c0,1.5,1,2.7,2.3,2.7s2.3-1.1,2.3-2.7c0-1.1-0.6-2.7-2.3-2.7S131.8,81,131.8,82.4z"/>
	<path d="M140.3,82.6c0,1.8,1.2,2.5,2.6,2.5c1,0,1.6-0.2,2.1-0.4l0.3,0.9c-0.4,0.2-1.3,0.4-2.5,0.4c-2.3,0-3.7-1.4-3.7-3.5
		c0-2.1,1.3-3.8,3.5-3.8c2.5,0,3.1,2,3.1,3.4c0,0.3,0,0.4-0.1,0.6L140.3,82.6L140.3,82.6z M144.4,81.7c0-0.8-0.4-2.1-1.9-2.1
		c-1.4,0-2,1.1-2.1,2.1H144.4z"/>
	<path d="M148.8,78.9v3h0.4l2.8-3.1h1.7l-3.3,3.2c1.2,0.1,1.9,0.9,2.6,2.1c0.2,0.4,0.4,1.1,0.8,1.7h-1.4c-0.2-0.3-0.4-0.9-0.7-1.4
		c-0.5-1.1-1.2-1.7-2.5-1.7h-0.3v3.1h-1.3v-7.1h1.2V78.9z"/>
	<path d="M159.5,78.9v3c0,1.1,0,1.9-0.1,2.8h0.1c0.4-0.9,0.7-1.3,1.2-2.2l2.4-3.6h1.6v7.1h-1.3v-3c0-1.1,0-1.8,0.1-2.9h-0.1
		c-0.4,0.9-0.8,1.5-1.2,2.2c-0.7,1.1-1.6,2.5-2.4,3.7h-1.6v-7.1C158.2,78.9,159.5,78.9,159.5,78.9z"/>
	<path d="M176.1,78.9V85h0.8l-0.1,3.2h-1.1l-0.1-2.2h-5.2l-0.1,2.2h-1.1l-0.1-3.2h0.6c0.4-0.4,0.6-1,0.7-1.4
		c0.3-0.9,0.4-1.9,0.4-2.8v-1.9C170.9,78.9,176.1,78.9,176.1,78.9z M172.3,81c0,1-0.2,1.9-0.4,2.7c-0.2,0.4-0.4,0.9-0.6,1.3h3.4
		v-5.1h-2.5V81z"/>
	<path d="M179.2,82.6c0,1.8,1.2,2.5,2.6,2.5c1,0,1.6-0.2,2.1-0.4l0.3,0.9c-0.4,0.2-1.3,0.4-2.5,0.4c-2.3,0-3.7-1.4-3.7-3.5
		c0-2.1,1.3-3.8,3.5-3.8c2.5,0,3.1,2,3.1,3.4c0,0.3,0,0.4-0.1,0.6L179.2,82.6L179.2,82.6z M183.2,81.7c0-0.8-0.4-2.1-1.9-2.1
		c-1.4,0-2,1.1-2.1,2.1H183.2z"/>
	<path d="M191.4,78.9v1.1H189v6h-1.3v-6h-2.4v-1.1H191.4z"/>
	<path d="M193.1,82.6c0,1.8,1.2,2.5,2.6,2.5c1,0,1.6-0.2,2.1-0.4l0.3,0.9c-0.4,0.2-1.3,0.4-2.5,0.4c-2.3,0-3.7-1.4-3.7-3.5
		c0-2.1,1.3-3.8,3.5-3.8c2.5,0,3.1,2,3.1,3.4c0,0.3,0,0.4-0.1,0.6L193.1,82.6L193.1,82.6z M197.2,81.7c0-0.8-0.4-2.1-1.9-2.1
		c-1.4,0-2,1.1-2.1,2.1H197.2z"/>
	<path d="M201.4,78.9v3c0,1.1,0,1.9-0.1,2.8h0.1c0.4-0.9,0.7-1.3,1.2-2.2l2.4-3.6h1.6v7.1h-1.3v-3c0-1.1,0-1.8,0.1-2.9h-0.1
		c-0.4,0.9-0.8,1.5-1.2,2.2c-0.7,1.1-1.6,2.5-2.4,3.7h-1.6v-7.1C200.1,78.9,201.4,78.9,201.4,78.9z M202.3,75.9
		c0.1,0.6,0.4,1.1,1,1.1c0.7,0,1-0.4,1.1-1.1h1c-0.1,1.1-0.9,1.8-2.1,1.8c-1.4,0-1.9-0.8-1.9-1.8H202.3z"/>
	<path d="M214.6,78.9v7.1h-1.3v-6h-2.6v1.9c0,1.9-0.2,3.3-1.1,3.9c-0.4,0.3-0.8,0.4-1.5,0.4l-0.2-1c0.3,0,0.5-0.2,0.7-0.3
		c0.7-0.4,0.8-1.5,0.8-3V79h5.2V78.9z"/>
	<path d="M218.1,78.9v3c0,1.1,0,1.9-0.1,2.8h0.1c0.4-0.9,0.7-1.3,1.2-2.2l2.4-3.6h1.6v7.1H222v-3c0-1.1,0-1.8,0.1-2.9H222
		c-0.4,0.9-0.8,1.5-1.2,2.2c-0.7,1.1-1.6,2.5-2.4,3.7h-1.6v-7.1C216.8,78.9,218.1,78.9,218.1,78.9z"/>
	<path d="M226.8,78.9v2.8h3.6v-2.8h1.3v7.1h-1.3v-3.2h-3.6v3.2h-1.3v-7.1H226.8z"/>
	<path d="M238.7,78.9v1.1h-3.3v6h-1.3v-7.1H238.7z"/>
	<path d="M244,85.9L244,85h-0.1c-0.4,0.5-1.2,1.1-2.3,1.1c-1.5,0-2.3-1-2.3-2c0-1.7,1.6-2.7,4.6-2.7v-0.2c0-0.6-0.2-1.6-1.7-1.6
		c-0.7,0-1.4,0.2-1.9,0.5l-0.4-0.9c0.6-0.4,1.5-0.6,2.5-0.6c2.3,0,2.9,1.5,2.9,2.9v2.7c0,0.6,0,1.2,0.1,1.7H244z M243.9,82.3
		c-1.5,0-3.2,0.2-3.2,1.6c0,0.8,0.6,1.2,1.3,1.2c1,0,1.6-0.6,1.9-1.1c0.1-0.1,0.1-0.3,0.1-0.4L243.9,82.3L243.9,82.3z"/>
</g>
</svg>
