<?xml version="1.0" encoding="utf-8"?>
<!-- Generator: Adobe Illustrator 24.0.0, SVG Export Plug-In . SVG Version: 6.00 Build 0)  -->
<svg version="1.1" id="Слой_1" xmlns="http://www.w3.org/2000/svg" xmlns:xlink="http://www.w3.org/1999/xlink" x="0px" y="0px"
	 width="250px" height="100px" viewBox="0 0 250 100" style="enable-background:new 0 0 250 100;" xml:space="preserve">
<path d="M110.6,25.4h16.5l4.2-4.2c0.4,5.1,2.2,10,5.1,14.2l0.4,0.5l3.4-2.4l-0.4-0.5c-2.8-4.1-4.5-8.8-4.5-13.8h6.2V11H125
	C117,10.9,110.6,17.4,110.6,25.4z"/>
<polygon points="108.5,70.8 137.4,66.6 137.4,62.5 108.5,66.6 "/>
<polygon points="108.5,85.2 137.4,85.2 137.4,70.8 108.5,74.8 "/>
<path d="M132.3,49.2c-3.2-3.2-5.1-7.8-5.1-12.4v-7.2H119v7c0,4.7-1.9,9.2-5.1,12.4c-3.2,3.2-5.1,7.8-5.1,12.4v0.9l28.6-4.1
	C136.5,54.8,134.9,51.6,132.3,49.2z"/>
</svg>
