<?xml version="1.0" encoding="utf-8"?>
<!-- Generator: Adobe Illustrator 24.0.0, SVG Export Plug-In . SVG Version: 6.00 Build 0)  -->
<svg version="1.1" id="Слой_1" xmlns="http://www.w3.org/2000/svg" xmlns:xlink="http://www.w3.org/1999/xlink" x="0px" y="0px"
	 width="250px" height="100px" viewBox="0 0 250 100" enable-background="new 0 0 250 100" xml:space="preserve">
<g id="cleaning">
	<rect x="17.7" y="15.6" fill="none" stroke="#55708A" stroke-width="2" stroke-linejoin="round" width="7.1" height="7.1"/>
	<path fill="none" stroke="#55708A" stroke-width="2" stroke-linejoin="round" d="M33.6,5.9H38v4.4h-4.4"/>
	<path fill="none" stroke="#55708A" stroke-width="2" stroke-linejoin="round" d="M18.5,15.6V13c0-1-0.8-1.8-1.8-1.8h-6.2
		c0-3.4,2.8-6.2,6.2-6.2h16.8v6.2h-8c-1,0-1.8,0.8-1.8,1.8v2.7"/>
	<path fill="none" stroke="#55708A" stroke-width="2" stroke-linejoin="round" d="M25.6,22.7c1,0,1.8,0.8,1.8,1.8v6.2
		c0,3.5,2,6.3,4.5,6.2c2.4,0,4.3,2,4.3,4.3c0,0,0,0.1,0,0.1v11.5c0,2-1.6,3.5-3.5,3.5h-23c-2,0-3.5-1.6-3.5-3.5V41.3
		c-0.1-2.4,1.8-4.4,4.2-4.4c0,0,0.1,0,0.1,0c2.5,0.1,4.5-2.7,4.5-6.2v-6.2c0-1,0.8-1.8,1.8-1.8H25.6z"/>
	<path fill="none" stroke="#55708A" stroke-width="2" stroke-linejoin="round" d="M35.3,22.7c-2.9,0-5.3-4-5.3-8.8"/>
	<line fill="none" stroke="#55708A" stroke-width="2" stroke-linejoin="round" x1="21.2" y1="18.3" x2="21.2" y2="20"/>
</g>
<text transform="matrix(1.0993 0 0 1 47.1836 52.8545)" fill="#55708A" font-family="'Bauhaus93'" font-size="54px">AMT</text>
<text transform="matrix(1.0993 0 0 1 5.0996 69.3164)"><tspan x="0" y="0" fill="#55708A" font-family="'MyriadPro-Regular'" font-size="10.9506px">В</tspan><tspan x="6" y="0" fill="#55708A" font-family="'MyriadPro-Regular'" font-size="10.9506px">с</tspan><tspan x="10.8" y="0" fill="#55708A" font-family="'MyriadPro-Regular'" font-size="10.9506px">е </tspan><tspan x="18.6" y="0" fill="#55708A" font-family="'MyriadPro-Regular'" font-size="10.9506px">д</tspan><tspan x="24.5" y="0" fill="#55708A" font-family="'MyriadPro-Regular'" font-size="10.9506px">л</tspan><tspan x="30.1" y="0" fill="#55708A" font-family="'MyriadPro-Regular'" font-size="10.9506px">я а</tspan><tspan x="43.1" y="0" fill="#55708A" font-family="'MyriadPro-Regular'" font-size="10.9506px">в</tspan><tspan x="48.5" y="0" fill="#55708A" font-family="'MyriadPro-Regular'" font-size="10.9506px">т</tspan><tspan x="52.8" y="0" fill="#55708A" font-family="'MyriadPro-Regular'" font-size="10.9506px">омоек и </tspan><tspan x="93.3" y="0" fill="#55708A" font-family="'MyriadPro-Regular'" font-size="10.9506px">де</tspan><tspan x="104.5" y="0" fill="#55708A" font-family="'MyriadPro-Regular'" font-size="10.9506px">т</tspan><tspan x="108.7" y="0" fill="#55708A" font-family="'MyriadPro-Regular'" font-size="10.9506px">е</tspan><tspan x="114.2" y="0" fill="#55708A" font-family="'MyriadPro-Regular'" font-size="10.9506px">й</tspan><tspan x="120.3" y="0" fill="#55708A" font-family="'MyriadPro-Regular'" font-size="10.9506px">лин</tspan><tspan x="137.9" y="0" fill="#55708A" font-family="'MyriadPro-Regular'" font-size="10.9506px">г</tspan><tspan x="142" y="0" fill="#55708A" font-family="'MyriadPro-Regular'" font-size="10.9506px">а</tspan></text>
</svg>
